<svg width="135" height="46" viewBox="0 0 135 46" fill="none" xmlns="http://www.w3.org/2000/svg">
    <path
        d="M21.6656 46C21.6397 46 21.6138 46 21.5878 46C19.6678 45.974 18.1629 45.3759 17.125 44.2318C15.5423 42.4635 15.5942 40.0452 15.6201 39.6292V33.3624L10.1194 36.5608C9.83401 36.7168 7.68045 37.965 5.29337 37.3929C3.73657 37.0028 2.46519 35.9887 1.47922 34.3765C-0.285148 31.4381 0.363517 29.0978 1.16786 27.6676C2.0241 26.1854 3.24359 25.3793 3.37332 25.3013L7.78424 22.5449L3.4771 20.1006C3.45116 20.0746 3.42521 20.0746 3.42521 20.0486C1.58301 18.8785 -1.3749 15.602 0.726769 11.7795C2.20572 9.04918 4.33334 8.4251 5.83824 8.3991C7.39504 8.34709 8.58858 8.91916 8.71831 8.99717C8.74426 9.02318 8.7702 9.02318 8.7702 9.04918L15.5682 12.9757V6.34483C15.5682 6.05879 15.5942 3.53646 17.3326 1.74223C18.4223 0.572075 19.9532 0 21.8473 0C25.2463 0 26.9328 1.71622 27.7371 3.17241C28.5934 4.65461 28.6453 6.1108 28.6453 6.29282L28.7491 11.4935L33.0302 9.02318C33.0562 8.99717 33.0821 8.99717 33.0821 8.97117C35.0541 7.98304 39.3612 7.12493 41.5667 10.8954C43.1494 13.5738 42.6045 15.706 41.8521 17.0322C41.0996 18.3844 40.0099 19.1385 39.8542 19.2165C39.8283 19.2165 39.8282 19.2425 39.8023 19.2425L33.1081 23.143L39.6985 26.9655C39.7245 26.9915 39.7504 26.9915 39.7504 27.0175C39.8801 27.0955 40.9699 27.8496 41.7223 29.2018C42.4489 30.502 42.9678 32.6603 41.385 35.3386C39.1536 39.0831 34.8465 38.173 32.8746 37.1849C32.8486 37.1588 32.8227 37.1589 32.8227 37.1328L28.5674 34.6365L28.4377 39.8112C28.4377 39.9672 28.3599 41.4494 27.5036 42.9316C26.6993 44.3098 25.0128 46 21.6656 46ZM18.0331 31.9062L18.0591 39.6552C18.0591 39.7072 18.0591 39.7332 18.0591 39.7592C18.0591 39.7852 17.9293 41.5014 18.9413 42.5676C19.5121 43.1916 20.4202 43.5037 21.5878 43.5297C21.6138 43.5297 21.6397 43.5297 21.6397 43.5297C25.6355 43.5297 25.9468 40.1232 25.9728 39.7072L26.1544 32.4522C26.1804 32.0102 26.4139 31.6201 26.7771 31.4121C27.1663 31.1781 27.6334 31.2041 27.9966 31.4381L34.0422 34.9746C34.1978 35.0526 35.1319 35.4686 36.2476 35.5466C37.6487 35.6507 38.6347 35.1566 39.3093 34.0644C40.0877 32.7383 40.2174 31.5681 39.6207 30.476C39.2055 29.6959 38.5828 29.2018 38.4531 29.0978L30.6691 24.5992L18.0331 31.9062ZM4.67065 27.3556C4.3074 27.5896 1.47922 29.5659 3.58089 33.0763C4.17766 34.1165 4.95606 34.7405 5.8123 34.9486C7.29125 35.3126 8.79615 34.4285 8.79615 34.4025C8.8221 34.4025 8.8221 34.3765 8.84804 34.3765L15.5942 30.45L15.5682 15.7841L7.55072 11.1815C7.42098 11.1295 6.69448 10.8174 5.78635 10.8694C4.56686 10.9214 3.58089 11.6235 2.85439 12.9757C2.23167 14.0938 2.30951 15.238 3.08791 16.3821C3.71062 17.2923 4.54092 17.8643 4.69659 17.9683L10.7681 21.4008C11.1573 21.6088 11.3908 21.9989 11.3908 22.4409C11.3908 22.883 11.1832 23.299 10.82 23.5071L4.67065 27.3556ZM21.8213 2.47032C20.6018 2.47032 19.6937 2.78236 19.045 3.45845C17.9812 4.55059 18.0072 6.26682 18.0072 6.29282V6.31882L18.0591 29.0458L28.2301 23.143L22.3662 19.7626C21.7954 19.4245 21.5878 18.6704 21.9251 18.0724C22.2624 17.5003 23.0149 17.2923 23.6116 17.6303L30.6691 21.7128L38.5828 17.1102C38.6866 17.0582 39.3353 16.5642 39.7764 15.7581C40.3472 14.6659 40.2693 13.4958 39.465 12.1696C38.7904 11.0514 37.8044 10.5574 36.4292 10.6354C35.3395 10.7134 34.4054 11.1295 34.2238 11.2075L28.1782 14.6919C27.789 14.8999 27.322 14.8999 26.9587 14.6919C26.5955 14.4839 26.336 14.0678 26.336 13.6518L26.2063 6.34483C26.1804 5.90277 25.8949 2.47032 21.8213 2.47032Z"
        fill="url(#paint0_linear_26_591)" />
    <path
        d="M65.9821 33.0243H63.6469V23.5851H53.1126V33.0243H50.8033V13.0017H53.1126V21.5308H63.6469V13.0017H65.9821V33.0243Z"
        fill="#232152" />
    <path
        d="M73.7661 24.7032V33.0243H71.4309V13.0017H76.9056C79.3706 13.0017 81.1609 13.4698 82.3285 14.4059C83.4961 15.342 84.0928 16.7722 84.0928 18.6444C84.0928 21.2968 82.7436 23.091 80.0711 24.0011L85.494 32.9983H82.7436L77.9176 24.6772H73.7661V24.7032ZM73.7661 22.701H76.9575C78.5922 22.701 79.8117 22.3889 80.5641 21.7128C81.3425 21.0628 81.7058 20.0746 81.7058 18.7745C81.7058 17.4483 81.3166 16.4862 80.5382 15.9141C79.7598 15.342 78.5143 15.03 76.7759 15.03H73.7661V22.701Z"
        fill="#232152" />
    <path
        d="M97.3256 14.7959C95.1201 14.7959 93.4076 15.524 92.1363 17.0062C90.8649 18.4884 90.2162 20.4647 90.2162 23.039C90.2162 25.6654 90.8389 27.6936 92.0584 29.1238C93.2779 30.554 95.0423 31.2561 97.2996 31.2561C98.7007 31.2561 100.283 30.996 102.074 30.502V32.5562C100.699 33.0763 98.9862 33.3364 96.9364 33.3364C94.0044 33.3364 91.7211 32.4522 90.1124 30.658C88.5037 28.8638 87.7253 26.3154 87.7253 23.039C87.7253 20.9847 88.1145 19.1645 88.8929 17.6043C89.6713 16.0441 90.7611 14.8479 92.24 14.0158C93.719 13.1837 95.4055 12.7677 97.3775 12.7677C99.4791 12.7677 101.295 13.1577 102.878 13.9118L101.892 15.9141C100.335 15.134 98.8305 14.7959 97.3256 14.7959Z"
        fill="#232152" />
    <path
        d="M108.742 24.7032V33.0243H106.407V13.0017H111.882C114.347 13.0017 116.137 13.4698 117.304 14.4059C118.472 15.342 119.069 16.7722 119.069 18.6444C119.069 21.2968 117.72 23.091 115.047 24.0011L120.47 32.9983H117.72L112.894 24.6772H108.742V24.7032ZM108.742 22.701H111.933C113.568 22.701 114.788 22.3889 115.54 21.7128C116.318 21.0628 116.682 20.0746 116.682 18.7745C116.682 17.4483 116.293 16.4862 115.514 15.9141C114.736 15.342 113.49 15.03 111.752 15.03H108.742V22.701Z"
        fill="#232152" />
    <path
        d="M135 27.6936C135 29.4619 134.351 30.84 133.08 31.8282C131.809 32.8163 130.07 33.3104 127.891 33.3104C125.529 33.3104 123.687 32.9983 122.416 32.4002V30.1639C123.246 30.502 124.128 30.788 125.088 30.9961C126.048 31.2041 127.008 31.3081 127.968 31.3081C129.525 31.3081 130.693 31.0221 131.471 30.424C132.25 29.8259 132.639 29.0198 132.639 27.9537C132.639 27.2516 132.509 26.6795 132.224 26.2374C131.938 25.7954 131.471 25.3793 130.823 25.0153C130.174 24.6512 129.188 24.2092 127.839 23.7411C125.971 23.065 124.647 22.2849 123.843 21.3748C123.039 20.4647 122.649 19.2685 122.649 17.7863C122.649 16.2521 123.22 15.004 124.388 14.0938C125.555 13.1837 127.086 12.7157 128.98 12.7157C130.978 12.7157 132.795 13.0797 134.455 13.8078L133.729 15.8361C132.068 15.134 130.485 14.7959 128.928 14.7959C127.709 14.7959 126.749 15.056 126.048 15.602C125.348 16.1481 125.011 16.8762 125.011 17.8123C125.011 18.5144 125.14 19.0865 125.4 19.5286C125.659 19.9706 126.074 20.3867 126.697 20.7507C127.294 21.1148 128.228 21.5308 129.473 21.9729C131.575 22.727 133.002 23.5331 133.806 24.3912C134.611 25.2493 135 26.3154 135 27.6936Z"
        fill="#232152" />
    <defs>
        <linearGradient id="paint0_linear_26_591" x1="0.000264759" y1="23" x2="42.6057" y2="23"
            gradientUnits="userSpaceOnUse">
            <stop stop-color="#377EFF" />
            <stop offset="1" stop-color="#00DAFF" />
        </linearGradient>
    </defs>
</svg>